<svg xmlns="http://www.w3.org/2000/svg" width="512" height="512" style="enable-background:new 0 0 512 512" xml:space="preserve"><path xmlns="http://www.w3.org/2000/svg" d="M386.738 54.153c-72.205-72.204-189.271-72.204-261.475 0-62.945 62.945-72.101 161.809-21.785 235.243L255.999 512l152.523-222.604c50.317-73.434 41.161-172.297-21.784-235.243z" fill="#e0565b" data-original="#80dbff"/><path xmlns="http://www.w3.org/2000/svg" d="M386.738 54.153C350.635 18.051 303.318 0 255.999 0v512l152.523-222.604c50.317-73.434 41.161-172.297-21.784-235.243z" fill="#e0565b" data-original="#19cffc"/><path xmlns="http://www.w3.org/2000/svg" fill="#e4e4e4" data-original="#e4e4e4" d="M185.455 157.713v88.736H326.54v-88.736l-70.541-59.264z"/><path xmlns="http://www.w3.org/2000/svg" fill="#d9d9d9" data-original="#d9d9d9" d="M255.999 246.449h70.541v-88.736l-70.541-59.264z"/><path xmlns="http://www.w3.org/2000/svg" fill="#79bfa2" data-original="#fa5d0f" d="m345.496 191.006-89.5-73.183-89.128 72.825-18.982-23.231 108.118-88.341 108.482 88.705z"/><path xmlns="http://www.w3.org/2000/svg" fill="#79bfa2" data-original="#f24500" d="m345.496 191.006-89.5-73.183.008-38.747 108.482 88.705z"/><path xmlns="http://www.w3.org/2000/svg" fill="#9e5015" data-original="#9e5015" d="M240.999 199.88h30v46.572h-30z"/><path xmlns="http://www.w3.org/2000/svg" fill="#8a4711" data-original="#8a4711" d="M255.809 199.88h15.188v46.572h-15.188z"/></svg>